<?xml version="1.0" encoding="utf-8"?>
<!-- Generator: Adobe Illustrator 23.0.3, SVG Export Plug-In . SVG Version: 6.00 Build 0)  -->
<svg version="1.1" id="Layer_1" xmlns="http://www.w3.org/2000/svg" xmlns:xlink="http://www.w3.org/1999/xlink" x="0px" y="0px"
	 width="290px" height="68.1px" viewBox="0 0 290 68.1" style="enable-background:new 0 0 290 68.1;" xml:space="preserve">
<style type="text/css">
	.st0{fill:#7F1416;}
	.st1{fill:#3A619C;}
	.st2{fill:#F9F9F9;}
	.st3{fill:#FFFFFF;}
	.st4{fill:none;stroke:#3A619C;stroke-width:0.2673;stroke-miterlimit:10;}
	.st5{fill:none;stroke:#F16731;stroke-width:0.2673;stroke-miterlimit:10;}
</style>
<g>
	<path class="st0" d="M49.7,13.2h14.7c3.3,0,5.8,0.3,7.6,0.8c2.3,0.7,4.3,1.9,6,3.7c1.7,1.8,2.9,3.9,3.8,6.4
		c0.9,2.5,1.3,5.7,1.3,9.4c0,3.3-0.4,6.1-1.2,8.5c-1,2.9-2.4,5.2-4.3,7c-1.4,1.4-3.3,2.4-5.6,3.2c-1.8,0.6-4.1,0.8-7.1,0.8H49.7
		V13.2z M57.8,20v26.3h6c2.2,0,3.9-0.1,4.9-0.4c1.3-0.3,2.4-0.9,3.2-1.7c0.9-0.8,1.6-2.1,2.1-3.8c0.5-1.8,0.8-4.2,0.8-7.3
		c0-3.1-0.3-5.4-0.8-7.1c-0.5-1.6-1.3-2.9-2.3-3.9c-1-0.9-2.2-1.5-3.7-1.9c-1.1-0.3-3.3-0.4-6.6-0.4H57.8z"/>
</g>
<g>
	<path class="st0" d="M96.8,47.3V36.9H86.4v-7.1h10.4V19.5h6.9v10.3h10.4v7.1h-10.4v10.3H96.8z"/>
</g>
<g>
	<path class="st0" d="M116.3,40.1l7.8-0.8c0.5,2.6,1.4,4.5,2.9,5.8c1.4,1.2,3.4,1.8,5.8,1.8c2.6,0,4.5-0.5,5.8-1.6
		c1.3-1.1,2-2.4,2-3.8c0-0.9-0.3-1.7-0.8-2.4c-0.6-0.7-1.5-1.2-2.9-1.7c-0.9-0.3-3.1-0.9-6.4-1.7c-4.3-1.1-7.3-2.4-9.1-3.9
		c-2.4-2.2-3.7-4.9-3.7-8c0-2,0.6-3.9,1.7-5.7c1.1-1.8,2.8-3.1,5-4c2.2-0.9,4.8-1.4,7.8-1.4c5,0,8.7,1.1,11.3,3.3
		c2.5,2.2,3.8,5.1,4,8.8l-8,0.4c-0.3-2-1.1-3.5-2.2-4.4c-1.1-0.9-2.8-1.3-5.1-1.3c-2.3,0-4.2,0.5-5.5,1.4c-0.9,0.6-1.3,1.4-1.3,2.5
		c0,0.9,0.4,1.7,1.2,2.4c1,0.9,3.5,1.7,7.4,2.7c3.9,0.9,6.8,1.9,8.7,2.9c1.9,1,3.3,2.3,4.4,4c1.1,1.7,1.6,3.8,1.6,6.3
		c0,2.3-0.6,4.4-1.9,6.4c-1.3,2-3.1,3.5-5.4,4.4c-2.3,1-5.2,1.5-8.7,1.5c-5,0-8.9-1.2-11.6-3.5C118.5,47.9,116.9,44.5,116.3,40.1z"
		/>
</g>
<g>
	<path class="st0" d="M154.6,15.2h2.9c0.7,0,1.3,0.1,1.7,0.2c0.4,0.1,0.7,0.4,1,0.7c0.3,0.3,0.6,0.8,0.7,1.3c0.2,0.5,0.3,1.2,0.3,2
		c0,0.7-0.1,1.4-0.3,1.9c-0.2,0.5-0.4,1-0.7,1.3s-0.6,0.6-1,0.7s-0.9,0.2-1.6,0.2h-3V15.2z M156.2,16.6v5.6h1.2c0.5,0,0.9,0,1.1-0.1
		c0.2-0.1,0.4-0.2,0.6-0.4c0.1-0.2,0.3-0.4,0.4-0.8c0.1-0.4,0.1-0.9,0.1-1.5c0-0.6,0-1.1-0.1-1.5c-0.1-0.4-0.3-0.6-0.5-0.8
		c-0.2-0.2-0.5-0.3-0.8-0.4c-0.2,0-0.7-0.1-1.3-0.1H156.2z"/>
	<path class="st0" d="M162.6,16.7v-1.5h1.5v1.5H162.6z M162.6,23.6v-6.1h1.5v6.1H162.6z"/>
	<path class="st0" d="M166.8,19.4l-1.4-0.3c0.2-0.6,0.4-1.1,0.8-1.3c0.4-0.3,0.9-0.4,1.7-0.4c0.6,0,1.1,0.1,1.5,0.2
		c0.3,0.2,0.6,0.4,0.7,0.6c0.1,0.3,0.2,0.8,0.2,1.5l0,1.9c0,0.5,0,0.9,0.1,1.2c0,0.3,0.1,0.5,0.3,0.8h-1.5l-0.2-0.7
		c-0.3,0.3-0.5,0.5-0.8,0.6c-0.3,0.1-0.6,0.2-0.9,0.2c-0.6,0-1-0.2-1.4-0.5c-0.4-0.3-0.5-0.8-0.5-1.3c0-0.3,0.1-0.6,0.2-0.9
		c0.1-0.3,0.3-0.5,0.6-0.6c0.3-0.2,0.7-0.3,1.3-0.4c0.7-0.1,1.2-0.3,1.5-0.4c0-0.3,0-0.6-0.1-0.7c-0.1-0.1-0.2-0.2-0.3-0.3
		c-0.1-0.1-0.4-0.1-0.6-0.1c-0.3,0-0.5,0.1-0.6,0.2C167,18.9,166.9,19.1,166.8,19.4z M168.8,20.7c-0.2,0.1-0.5,0.1-0.9,0.2
		c-0.5,0.1-0.8,0.2-0.9,0.4c-0.1,0.1-0.2,0.3-0.2,0.5c0,0.2,0.1,0.4,0.2,0.6c0.2,0.2,0.4,0.2,0.6,0.2c0.2,0,0.4-0.1,0.6-0.2
		c0.2-0.1,0.4-0.3,0.4-0.5c0.1-0.2,0.1-0.5,0.1-1V20.7z"/>
	<path class="st0" d="M171.6,24l1.7,0.2c0,0.2,0.1,0.4,0.2,0.5c0.1,0.1,0.3,0.1,0.6,0.1c0.3,0,0.6,0,0.8-0.1
		c0.1-0.1,0.3-0.2,0.3-0.3c0.1-0.2,0.1-0.4,0.1-0.8v-0.9c-0.2,0.3-0.5,0.6-0.8,0.7c-0.3,0.2-0.6,0.2-0.9,0.2c-0.6,0-1.2-0.3-1.6-0.8
		c-0.5-0.6-0.8-1.4-0.8-2.3c0-1,0.2-1.8,0.7-2.4c0.5-0.5,1-0.8,1.7-0.8c0.4,0,0.7,0.1,1,0.2c0.3,0.2,0.6,0.4,0.8,0.7v-0.9h1.4V23
		c0,0.9-0.1,1.5-0.3,1.9c-0.2,0.4-0.5,0.7-0.9,0.9c-0.4,0.2-0.9,0.3-1.6,0.3c-0.6,0-1.1-0.1-1.5-0.2c-0.4-0.1-0.7-0.4-0.9-0.7
		c-0.2-0.3-0.3-0.6-0.3-1V24z M173,20.4c0,0.7,0.1,1.1,0.4,1.4c0.2,0.3,0.5,0.4,0.9,0.4c0.4,0,0.7-0.2,0.9-0.5
		c0.3-0.3,0.4-0.8,0.4-1.4c0-0.6-0.1-1.1-0.4-1.4c-0.2-0.3-0.6-0.5-0.9-0.5c-0.4,0-0.7,0.1-0.9,0.4C173.1,19.4,173,19.8,173,20.4z"
		/>
	<path class="st0" d="M183.8,23.6h-1.5v-3.1c0-0.6,0-1-0.1-1.2c-0.1-0.2-0.2-0.4-0.3-0.5c-0.2-0.1-0.3-0.2-0.5-0.2
		c-0.3,0-0.5,0.1-0.7,0.2c-0.2,0.1-0.4,0.3-0.4,0.6c-0.1,0.3-0.1,0.7-0.1,1.4v2.8h-1.5v-6.1h1.4v0.9c0.3-0.3,0.5-0.6,0.8-0.8
		c0.3-0.2,0.7-0.3,1-0.3c0.4,0,0.8,0.1,1.1,0.3c0.3,0.2,0.5,0.5,0.6,0.8c0.1,0.3,0.2,0.8,0.2,1.4V23.6z"/>
	<path class="st0" d="M184.9,20.5c0-0.6,0.1-1.1,0.4-1.6c0.3-0.5,0.6-0.9,1.1-1.1c0.4-0.2,0.9-0.4,1.5-0.4c0.9,0,1.6,0.3,2.2,0.9
		c0.5,0.6,0.8,1.4,0.8,2.2c0,0.6-0.1,1.2-0.4,1.7c-0.3,0.5-0.6,0.9-1.1,1.1c-0.4,0.3-0.9,0.4-1.5,0.4c-0.9,0-1.6-0.3-2.1-0.9
		C185.2,22.3,184.9,21.5,184.9,20.5z M186.5,20.6c0,0.6,0.1,1.1,0.4,1.4c0.3,0.3,0.6,0.5,1,0.5c0.4,0,0.7-0.2,1-0.5
		c0.3-0.3,0.4-0.8,0.4-1.4c0-0.6-0.1-1.1-0.4-1.4c-0.3-0.3-0.6-0.5-1-0.5c-0.4,0-0.7,0.2-1,0.5C186.6,19.5,186.5,20,186.5,20.6z
		 M187.1,16.8l0.7-1.7h1.7l-1.5,1.7H187.1z"/>
	<path class="st0" d="M191.5,21.9l1.5-0.2c0.1,0.6,0.5,1,1.2,1c0.4,0,0.6-0.1,0.8-0.2c0.2-0.1,0.3-0.3,0.3-0.5c0-0.1,0-0.2-0.1-0.3
		c-0.1-0.1-0.2-0.1-0.5-0.2c-1.2-0.3-2-0.6-2.4-0.8c-0.4-0.3-0.6-0.8-0.6-1.3c0-0.6,0.2-1,0.6-1.4c0.4-0.3,1-0.5,1.8-0.5
		c0.8,0,1.3,0.1,1.7,0.4c0.4,0.3,0.7,0.7,0.8,1.2l-1.4,0.3c-0.1-0.5-0.5-0.7-1.1-0.7c-0.4,0-0.6,0-0.8,0.1c-0.2,0.1-0.2,0.2-0.2,0.4
		c0,0.1,0.1,0.2,0.2,0.3c0.1,0.1,0.6,0.2,1.3,0.4c0.8,0.2,1.4,0.5,1.7,0.8c0.3,0.3,0.4,0.7,0.4,1.2c0,0.6-0.2,1.1-0.7,1.5
		c-0.5,0.4-1.1,0.6-1.9,0.6c-0.7,0-1.3-0.2-1.8-0.5C192,23,191.7,22.5,191.5,21.9z"/>
	<path class="st0" d="M200.8,17.5v1.3h-1v2.5c0,0.5,0,0.8,0,0.9c0.1,0.2,0.2,0.2,0.4,0.2c0.1,0,0.3-0.1,0.6-0.2l0.1,1.3
		c-0.4,0.2-0.7,0.2-1.2,0.2c-0.4,0-0.7-0.1-0.9-0.2c-0.2-0.2-0.4-0.4-0.5-0.7c-0.1-0.2-0.1-0.7-0.1-1.4v-2.7h-0.7v-1.3h0.7v-1.2
		l1.5-0.9v2.2H200.8z"/>
	<path class="st0" d="M201.9,16.7v-1.5h1.5v1.5H201.9z M201.9,23.6v-6.1h1.5v6.1H201.9z"/>
	<path class="st0" d="M210,19.3l-1.5,0.3c-0.1-0.6-0.5-1-1-1c-0.4,0-0.7,0.1-0.9,0.4c-0.2,0.3-0.3,0.7-0.3,1.4
		c0,0.7,0.1,1.2,0.3,1.5c0.2,0.3,0.5,0.4,0.9,0.4c0.3,0,0.5-0.1,0.7-0.3c0.2-0.2,0.3-0.5,0.4-0.9l1.5,0.3c-0.3,1.5-1.2,2.2-2.7,2.2
		c-0.9,0-1.6-0.3-2.1-0.9c-0.5-0.6-0.7-1.4-0.7-2.2c0-1,0.3-1.8,0.8-2.4c0.5-0.5,1.2-0.8,2-0.8c0.7,0,1.2,0.2,1.6,0.5
		C209.5,18.1,209.8,18.6,210,19.3z"/>
	<path class="st0" d="M210.7,20.5c0-0.6,0.1-1.1,0.4-1.6c0.3-0.5,0.6-0.9,1.1-1.1c0.4-0.2,0.9-0.4,1.5-0.4c0.9,0,1.6,0.3,2.2,0.9
		c0.5,0.6,0.8,1.4,0.8,2.2c0,0.6-0.1,1.2-0.4,1.7c-0.3,0.5-0.6,0.9-1.1,1.1c-0.4,0.3-0.9,0.4-1.5,0.4c-0.9,0-1.6-0.3-2.1-0.9
		C211,22.3,210.7,21.5,210.7,20.5z M212.3,20.6c0,0.6,0.1,1.1,0.4,1.4c0.3,0.3,0.6,0.5,1,0.5c0.4,0,0.7-0.2,1-0.5
		c0.3-0.3,0.4-0.8,0.4-1.4c0-0.6-0.1-1.1-0.4-1.4c-0.3-0.3-0.6-0.5-1-0.5c-0.4,0-0.7,0.2-1,0.5C212.4,19.5,212.3,20,212.3,20.6z"/>
	<path class="st0" d="M220.2,17.5h1.6l1.4,4.3l1.3-4.3h1.6l-2,5.9l-0.4,1.1c-0.2,0.4-0.3,0.7-0.5,0.9c-0.2,0.2-0.4,0.4-0.6,0.5
		c-0.3,0.1-0.6,0.2-1,0.2c-0.3,0-0.6,0-0.9-0.1l-0.1-1.3c0.2,0,0.5,0.1,0.6,0.1c0.3,0,0.5-0.1,0.7-0.3c0.2-0.2,0.3-0.5,0.5-0.9
		L220.2,17.5z"/>
	<path class="st0" d="M229.8,20.9l1.6-0.2c0.2,1.1,0.8,1.6,1.7,1.6c0.5,0,0.9-0.1,1.1-0.3c0.3-0.2,0.4-0.5,0.4-0.8
		c0-0.2,0-0.4-0.1-0.5c-0.1-0.1-0.2-0.2-0.4-0.3c-0.2-0.1-0.7-0.2-1.4-0.4c-0.7-0.2-1.2-0.4-1.5-0.6c-0.3-0.2-0.6-0.5-0.8-0.8
		c-0.2-0.3-0.3-0.7-0.3-1.1c0-0.5,0.1-0.9,0.4-1.2c0.2-0.4,0.6-0.6,1-0.8c0.4-0.2,0.9-0.3,1.6-0.3c0.9,0,1.7,0.2,2.2,0.7
		c0.5,0.4,0.8,1.1,0.8,1.9l-1.6,0.1c-0.1-0.5-0.2-0.8-0.5-0.9c-0.2-0.2-0.6-0.3-1-0.3c-0.4,0-0.8,0.1-1,0.2
		c-0.2,0.2-0.3,0.4-0.3,0.6c0,0.2,0.1,0.4,0.3,0.6c0.2,0.2,0.7,0.3,1.5,0.5c0.8,0.2,1.4,0.4,1.7,0.6c0.4,0.2,0.6,0.5,0.8,0.9
		c0.2,0.4,0.3,0.8,0.3,1.3c0,0.7-0.3,1.3-0.8,1.8c-0.5,0.5-1.3,0.7-2.4,0.7C231.1,23.8,230,22.8,229.8,20.9z"/>
	<path class="st0" d="M237.2,20.5c0-0.6,0.1-1.1,0.4-1.6c0.3-0.5,0.6-0.9,1.1-1.1c0.4-0.2,0.9-0.4,1.5-0.4c0.9,0,1.6,0.3,2.2,0.9
		c0.5,0.6,0.8,1.4,0.8,2.2c0,0.6-0.1,1.2-0.4,1.7c-0.3,0.5-0.6,0.9-1.1,1.1c-0.4,0.3-0.9,0.4-1.5,0.4c-0.9,0-1.6-0.3-2.1-0.9
		C237.5,22.3,237.2,21.5,237.2,20.5z M238.7,20.6c0,0.6,0.1,1.1,0.4,1.4c0.3,0.3,0.6,0.5,1,0.5c0.4,0,0.7-0.2,1-0.5
		c0.3-0.3,0.4-0.8,0.4-1.4c0-0.6-0.1-1.1-0.4-1.4c-0.3-0.3-0.6-0.5-1-0.5c-0.4,0-0.7,0.2-1,0.5C238.9,19.5,238.7,20,238.7,20.6z"/>
	<path class="st0" d="M244.3,23.6v-8.4h1.5v8.4H244.3z"/>
	<path class="st0" d="M251.1,23.6v-0.9c-0.2,0.3-0.5,0.6-0.8,0.8c-0.3,0.2-0.7,0.3-1.1,0.3c-0.4,0-0.7-0.1-1-0.3
		c-0.3-0.2-0.5-0.4-0.7-0.7c-0.1-0.3-0.2-0.8-0.2-1.4v-3.9h1.5v2.8c0,0.8,0,1.3,0.1,1.5c0,0.2,0.1,0.4,0.3,0.5
		c0.2,0.1,0.3,0.2,0.6,0.2c0.3,0,0.5-0.1,0.7-0.2c0.2-0.2,0.4-0.4,0.4-0.6c0.1-0.2,0.1-0.8,0.1-1.6v-2.6h1.5v6.1H251.1z"/>
	<path class="st0" d="M259.1,19.3l-1.5,0.3c-0.1-0.6-0.5-1-1-1c-0.4,0-0.7,0.1-0.9,0.4c-0.2,0.3-0.3,0.7-0.3,1.4
		c0,0.7,0.1,1.2,0.3,1.5c0.2,0.3,0.5,0.4,0.9,0.4c0.3,0,0.5-0.1,0.7-0.3c0.2-0.2,0.3-0.5,0.4-0.9l1.5,0.3c-0.3,1.5-1.2,2.2-2.7,2.2
		c-0.9,0-1.6-0.3-2.1-0.9c-0.5-0.6-0.7-1.4-0.7-2.2c0-1,0.3-1.8,0.8-2.4c0.5-0.5,1.2-0.8,2-0.8c0.7,0,1.2,0.2,1.6,0.5
		C258.6,18.1,258.9,18.6,259.1,19.3z"/>
	<path class="st0" d="M260.3,16.7v-1.5h1.5v1.5H260.3z M260.3,23.6v-6.1h1.5v6.1H260.3z"/>
	<path class="st0" d="M263,20.5c0-0.6,0.1-1.1,0.4-1.6c0.3-0.5,0.6-0.9,1.1-1.1c0.4-0.2,0.9-0.4,1.5-0.4c0.9,0,1.6,0.3,2.2,0.9
		c0.5,0.6,0.8,1.4,0.8,2.2c0,0.6-0.1,1.2-0.4,1.7c-0.3,0.5-0.6,0.9-1.1,1.1c-0.4,0.3-0.9,0.4-1.5,0.4c-0.9,0-1.6-0.3-2.1-0.9
		C263.3,22.3,263,21.5,263,20.5z M264.5,20.6c0,0.6,0.1,1.1,0.4,1.4c0.3,0.3,0.6,0.5,1,0.5c0.4,0,0.7-0.2,1-0.5
		c0.3-0.3,0.4-0.8,0.4-1.4c0-0.6-0.1-1.1-0.4-1.4c-0.3-0.3-0.6-0.5-1-0.5c-0.4,0-0.7,0.2-1,0.5C264.7,19.5,264.5,20,264.5,20.6z"/>
	<path class="st0" d="M275.3,23.6h-1.5v-3.1c0-0.6,0-1-0.1-1.2c-0.1-0.2-0.2-0.4-0.3-0.5c-0.2-0.1-0.3-0.2-0.5-0.2
		c-0.3,0-0.5,0.1-0.7,0.2c-0.2,0.1-0.4,0.3-0.4,0.6c-0.1,0.3-0.1,0.7-0.1,1.4v2.8h-1.5v-6.1h1.4v0.9c0.3-0.3,0.5-0.6,0.8-0.8
		c0.3-0.2,0.7-0.3,1-0.3c0.4,0,0.8,0.1,1.1,0.3c0.3,0.2,0.5,0.5,0.6,0.8c0.1,0.3,0.2,0.8,0.2,1.4V23.6z"/>
	<path class="st0" d="M280.2,21.7l1.5,0.3c-0.2,0.6-0.5,1.1-0.9,1.4c-0.4,0.3-0.9,0.4-1.6,0.4c-0.8,0-1.5-0.2-2-0.7
		c-0.5-0.6-0.8-1.4-0.8-2.4c0-1,0.3-1.8,0.8-2.5c0.5-0.5,1.1-0.8,1.8-0.8c0.8,0,1.5,0.3,1.9,0.8c0.5,0.6,0.8,1.5,0.8,2.7l0,0.2H278
		c0,0.5,0.1,0.9,0.4,1.1c0.2,0.3,0.5,0.4,0.9,0.4C279.7,22.6,280,22.3,280.2,21.7z M280.3,20c0-0.5-0.1-0.8-0.3-1.1
		c-0.2-0.2-0.5-0.4-0.8-0.4c-0.3,0-0.6,0.1-0.8,0.4c-0.2,0.3-0.3,0.6-0.3,1.1H280.3z"/>
	<path class="st0" d="M282.5,21.9l1.5-0.2c0.1,0.6,0.5,1,1.2,1c0.4,0,0.6-0.1,0.8-0.2c0.2-0.1,0.3-0.3,0.3-0.5c0-0.1,0-0.2-0.1-0.3
		c-0.1-0.1-0.2-0.1-0.5-0.2c-1.2-0.3-2-0.6-2.4-0.8c-0.4-0.3-0.6-0.8-0.6-1.3c0-0.6,0.2-1,0.6-1.4c0.4-0.3,1-0.5,1.8-0.5
		c0.8,0,1.3,0.1,1.7,0.4c0.4,0.3,0.7,0.7,0.8,1.2l-1.4,0.3c-0.1-0.5-0.5-0.7-1.1-0.7c-0.4,0-0.6,0-0.8,0.1c-0.2,0.1-0.2,0.2-0.2,0.4
		c0,0.1,0.1,0.2,0.2,0.3c0.1,0.1,0.6,0.2,1.3,0.4c0.8,0.2,1.4,0.5,1.7,0.8c0.3,0.3,0.4,0.7,0.4,1.2c0,0.6-0.2,1.1-0.7,1.5
		c-0.5,0.4-1.1,0.6-1.9,0.6c-0.7,0-1.3-0.2-1.8-0.5C282.9,23,282.6,22.5,282.5,21.9z"/>
</g>
<rect x="153.8" y="27.3" class="st1" width="133.9" height="26.3"/>
<g>
	<path class="st2" d="M163.7,36.6c-0.1,0.1-0.2,0.4-0.4,0.7c0,0.1-0.1,0.3-0.3,0.6c0,0-0.1,0.1-0.1,0.1c0,0-0.2-0.1-0.6-0.2
		c-0.4-0.2-0.8-0.2-1.1-0.2c-0.8,0-1.2,0.4-1.2,1.1c0,0.4,0.3,0.8,0.9,1c1,0.5,1.5,0.8,1.6,0.9c0.6,0.5,0.9,1.1,0.9,1.9
		c0,1-0.4,1.8-1.2,2.4c-0.7,0.5-1.6,0.8-2.6,0.8c-0.5,0-0.7-0.1-0.8-0.2c0-0.2-0.1-0.4-0.1-0.7c0-0.1-0.1-0.3-0.2-0.6
		c0,0,0-0.1,0-0.1c0-0.1,0-0.1,0.1-0.1c0.1,0,0.3,0,0.5,0c0.2,0,0.4,0,0.5,0c1.4,0,2.1-0.4,2.1-1.3c0-0.4-0.3-0.8-0.8-1.1
		c-1-0.6-1.5-0.9-1.6-0.9c-0.6-0.5-0.8-1.1-0.8-1.8c0-0.8,0.3-1.5,0.8-2c0.5-0.5,1.2-0.7,2.1-0.7c0.4,0,0.8,0.1,1.2,0.2
		C163,36.1,163.4,36.3,163.7,36.6C163.7,36.5,163.7,36.5,163.7,36.6z"/>
	<path class="st2" d="M171.1,43.9c0,0.1,0,0.2-0.1,0.3c0,0.2-0.1,0.3-0.1,0.3c0,0.2,0,0.4-0.1,0.7c0,0.1-0.1,0.1-0.2,0.1
		c0,0-0.1,0-0.3,0c-0.5-0.1-1.4-0.1-2.5-0.1c-0.3,0-0.8,0-1.5,0c-0.7,0-1.1,0-1.5,0c-0.1,0-0.2-0.1-0.2-0.2c0-0.5,0-1.2,0.1-2.2
		c0.1-1,0.1-1.8,0.1-2.2c0-0.5,0-1.5-0.1-2.8c0-0.4,0-0.9-0.1-1.6l0-0.1c0-0.1,0.1-0.2,0.2-0.2c0.3,0,0.8,0,1.4,0c0.6,0,1.1,0,1.4,0
		c0.3,0,0.7,0,1.3,0c0.6,0,1,0,1.3,0c0.2,0,0.3,0.1,0.3,0.2c0.1,0.6,0.1,1,0.1,1.1c0,0.1,0,0.2-0.1,0.2c-0.4,0-1,0-1.7-0.1
		c-0.8,0-1.3-0.1-1.7-0.1c-0.4,0-0.6,0-0.7,0.1c-0.1,0.1-0.1,0.3-0.1,0.7v1c0,0.3,0,0.4,0,0.5c0,0.1,0.2,0.2,0.3,0.2
		c0.1,0,0.1,0,0.2,0c0.1,0,0.2,0,0.2,0c0.9,0,1.7,0,2.4,0c0.3,0,0.6,0,1-0.1c0.1,0,0.1,0,0.1,0.1c0,0.1,0,0.4-0.1,0.7
		c0,0.3,0,0.5,0,0.7c0,0.1-0.1,0.1-0.2,0.1c-0.1,0-0.3,0-0.6,0c-0.2,0-0.8,0-1.7,0c-0.7,0-1.2,0-1.4,0c-0.2,0-0.3,0.1-0.3,0.3
		c0,0,0,0.1,0,0.5v1c0,0.5,0.1,0.8,0.2,0.9c0.1,0.1,0.4,0.1,0.8,0.1l0.7,0c0.3,0,1.2-0.1,2.6-0.2l0.1,0
		C171,43.7,171.1,43.8,171.1,43.9z"/>
	<path class="st2" d="M179.3,45.2c0,0,0,0.1-0.1,0.1c-0.1,0-0.2,0-0.4,0c-0.2,0-0.3,0-0.4,0c-0.1,0-0.2,0-0.4,0c-0.2,0-0.3,0-0.4,0
		c-0.1,0-0.2-0.1-0.2-0.2c-0.1-0.3-0.5-1.2-1.2-2.8c-0.1-0.2-0.2-0.3-0.5-0.3c-0.1,0-0.3,0-0.6,0c-0.6,0-1,0-1.1,0
		c-0.1,0-0.1,0.1-0.1,0.3c0,0.3,0,0.8,0,1.4c0,0.6,0,1.1,0,1.4c0,0.1,0,0.1-0.1,0.1c-0.1,0-0.2,0-0.4,0c-0.2,0-0.3,0-0.4,0
		c-0.1,0-0.2,0-0.3,0c-0.2,0-0.3,0-0.3,0c-0.1,0-0.2-0.1-0.2-0.2c0-0.5,0-1.2,0.1-2.2c0-1,0.1-1.7,0.1-2.2c0-1.4-0.1-2.9-0.2-4.5
		l0-0.1c0-0.1,0.1-0.1,0.3-0.1c0.4,0,1,0,1.7,0c0.8,0,1.3,0,1.7,0c1,0,1.8,0.2,2.4,0.7c0.7,0.5,1,1.3,1,2.2c0,0.7-0.1,1.2-0.3,1.6
		c-0.2,0.4-0.5,0.8-1,1.1c-0.1,0.1-0.1,0.1-0.1,0.2c0,0.1,0.3,0.7,0.8,1.8C179.1,44.5,179.3,45.1,179.3,45.2z M177.5,39.2
		c0-0.8-0.2-1.3-0.7-1.6c-0.3-0.2-1-0.3-1.9-0.3c-0.7,0-1.1,0.1-1.1,0.2c0,0.2,0,0.9,0,1.9v1.3c0,0,0,0,0.1,0c0.1,0,0.2,0,0.4,0
		c0.4,0,0.9,0,1.4,0C176.9,40.7,177.5,40.2,177.5,39.2z"/>
	<path class="st2" d="M187.6,39.2c0,0.2-0.4,1.1-1.3,2.8c-0.6,1-1.1,2.1-1.7,3.1c-0.1,0.1-0.1,0.2-0.2,0.2h-1.3
		c-0.1,0-0.1-0.1-0.2-0.2c0,0-0.5-1-1.6-3c-0.9-1.7-1.3-2.6-1.3-2.8c0-0.4,0-0.9,0-1.6c0-0.7,0-1.2,0-1.6c0-0.2,0.1-0.2,0.2-0.2
		c0.1,0,0.2,0,0.4,0c0.2,0,0.3,0,0.4,0c0.1,0,0.2,0,0.4,0c0.2,0,0.3,0,0.4,0c0.1,0,0.2,0,0.2,0.1c0,0.4,0,0.9-0.1,1.6
		c0,0.7-0.1,1.3-0.1,1.6c0,0.3,0.7,1.7,2.1,4.1c0.4-0.6,0.8-1.3,1.2-2.1c0.6-1.2,0.9-1.9,0.9-2.1c0-0.3,0-0.9,0-1.6
		c0-0.7,0-1.2,0-1.6c0-0.1,0-0.1,0.1-0.1c0.1,0,0.2,0,0.4,0c0.2,0,0.3,0,0.4,0c0.1,0,0.2,0,0.4,0c0.2,0,0.3,0,0.4,0
		c0.1,0,0.2,0,0.2,0.1c0,0,0,0.1,0,0.3c0,0.3,0,0.8,0,1.5C187.6,38.4,187.6,38.9,187.6,39.2z"/>
	<path class="st2" d="M190.6,45.1c0,0.1-0.1,0.1-0.2,0.1c-0.1,0-0.2,0-0.4,0c-0.2,0-0.3,0-0.4,0c-0.1,0-0.2,0-0.4,0
		c-0.2,0-0.3,0-0.4,0c-0.1,0-0.2-0.1-0.2-0.2c0-0.5,0-1.3,0.1-2.3c0-1,0.1-1.8,0.1-2.3c0-0.5,0-1.2-0.1-2.2c0-1-0.1-1.7-0.1-2.2
		c0-0.1,0.1-0.2,0.2-0.2c0.1,0,0.2,0,0.4,0c0.2,0,0.3,0,0.4,0c0.1,0,0.2,0,0.4,0c0.2,0,0.3,0,0.4,0c0.1,0,0.2,0,0.2,0.1
		c0,0.5,0,1.2-0.1,2.2c0,1-0.1,1.7-0.1,2.2c0,0.5,0,1.3,0.1,2.3C190.5,43.8,190.6,44.6,190.6,45.1z"/>
	<path class="st2" d="M199.3,43.7c0,0.1,0,0.1-0.1,0.2c-0.9,1-1.9,1.5-3.2,1.5c-1.3,0-2.4-0.5-3.2-1.5c-0.7-0.9-1.1-2-1.1-3.4
		c0-1.4,0.4-2.5,1.1-3.4c0.8-1,1.9-1.5,3.2-1.5c1.4,0,2.4,0.5,3.1,1.4c0.1,0.1,0.1,0.2,0.1,0.2c0,0.1-0.1,0.3-0.4,0.7
		c-0.2,0.4-0.4,0.6-0.4,0.6c-0.1,0-0.2-0.1-0.4-0.3c-0.3-0.3-0.5-0.5-0.7-0.6c-0.4-0.2-0.8-0.3-1.3-0.3c-0.9,0-1.6,0.3-2.1,1
		c-0.4,0.6-0.7,1.4-0.7,2.3c0,0.9,0.2,1.7,0.6,2.3c0.5,0.7,1.2,1,2.1,1c0.4,0,0.9-0.1,1.3-0.3c0.3-0.1,0.5-0.3,0.8-0.6
		c0.2-0.2,0.4-0.3,0.4-0.3c0,0,0.2,0.2,0.4,0.5C199.2,43.5,199.3,43.7,199.3,43.7z"/>
	<path class="st2" d="M201.9,45.1c0,0.1-0.1,0.1-0.2,0.1c-0.1,0-0.2,0-0.4,0c-0.2,0-0.3,0-0.4,0c-0.1,0-0.2,0-0.4,0
		c-0.2,0-0.3,0-0.4,0c-0.1,0-0.2-0.1-0.2-0.2c0-0.5,0-1.3,0.1-2.3c0-1,0.1-1.8,0.1-2.3c0-0.5,0-1.2-0.1-2.2c0-1-0.1-1.7-0.1-2.2
		c0-0.1,0.1-0.2,0.2-0.2c0.1,0,0.2,0,0.4,0c0.2,0,0.3,0,0.4,0c0.1,0,0.2,0,0.4,0c0.2,0,0.3,0,0.4,0c0.1,0,0.2,0,0.2,0.1
		c0,0.5,0,1.2-0.1,2.2c0,1-0.1,1.7-0.1,2.2c0,0.5,0,1.3,0.1,2.3C201.9,43.8,201.9,44.6,201.9,45.1z"/>
	<path class="st2" d="M212.1,40.6c0,1.3-0.4,2.5-1.3,3.4c-0.9,1-2,1.5-3.3,1.5c-1.3,0-2.4-0.5-3.3-1.5c-0.8-0.9-1.3-2.1-1.3-3.4
		c0-1.3,0.4-2.5,1.3-3.4c0.9-1,2-1.5,3.3-1.5c1.3,0,2.4,0.5,3.3,1.5C211.7,38.1,212.1,39.3,212.1,40.6z M210.5,40.6
		c0-0.9-0.3-1.6-0.8-2.3c-0.6-0.7-1.3-1-2.1-1c-0.9,0-1.6,0.3-2.1,1c-0.5,0.7-0.8,1.4-0.8,2.3c0,0.9,0.3,1.6,0.8,2.3
		c0.6,0.7,1.3,1,2.1,1c0.9,0,1.6-0.3,2.2-1C210.3,42.2,210.5,41.4,210.5,40.6z"/>
	<path class="st2" d="M218.6,36.6c-0.1,0.1-0.2,0.4-0.4,0.7c0,0.1-0.1,0.3-0.3,0.6c0,0-0.1,0.1-0.1,0.1c0,0-0.2-0.1-0.6-0.2
		c-0.4-0.2-0.8-0.2-1.1-0.2c-0.8,0-1.2,0.4-1.2,1.1c0,0.4,0.3,0.8,0.9,1c1,0.5,1.5,0.8,1.6,0.9c0.6,0.5,0.9,1.1,0.9,1.9
		c0,1-0.4,1.8-1.2,2.4c-0.7,0.5-1.6,0.8-2.6,0.8c-0.5,0-0.7-0.1-0.8-0.2c0-0.2-0.1-0.4-0.1-0.7c0-0.1-0.1-0.3-0.2-0.6
		c0,0,0-0.1,0-0.1c0-0.1,0-0.1,0.1-0.1c0.1,0,0.3,0,0.5,0c0.2,0,0.4,0,0.5,0c1.4,0,2.1-0.4,2.1-1.3c0-0.4-0.3-0.8-0.8-1.1
		c-1-0.6-1.5-0.9-1.6-0.9c-0.6-0.5-0.8-1.1-0.8-1.8c0-0.8,0.3-1.5,0.8-2c0.5-0.5,1.2-0.7,2.1-0.7c0.4,0,0.8,0.1,1.2,0.2
		C217.9,36.1,218.3,36.3,218.6,36.6C218.6,36.5,218.6,36.5,218.6,36.6z"/>
	<path class="st2" d="M231.3,45.2c0,0.1-0.1,0.1-0.2,0.1c-0.1,0-0.2,0-0.4,0c-0.2,0-0.3,0-0.4,0c-0.1,0-0.2,0-0.4,0
		c-0.2,0-0.3,0-0.4,0c-0.1,0-0.3-0.3-0.5-1c-0.2-0.7-0.4-1-0.6-1c-0.2,0-0.6,0-1.3,0h-1.1c-0.7,0-1.2,0-1.3,0c-0.2,0-0.3,0.4-0.5,1
		c-0.2,0.7-0.3,1-0.4,1h-1.5c-0.1,0-0.1,0-0.1-0.1c0,0,0-0.1,0.1-0.3l1.6-4.5c0.1-0.4,0.6-1.4,1.3-3.1c0.1-0.3,0.3-0.7,0.5-1.3
		c0.1-0.2,0.1-0.3,0.2-0.3c0.1,0,0.2,0,0.4,0c0.2,0,0.3,0,0.4,0c0.1,0,0.2,0,0.4,0c0.2,0,0.3,0,0.4,0c0,0,0.1,0.1,0.2,0.2
		c0.1,0.2,0.6,1.6,1.6,4C230.7,43.4,231.3,45.2,231.3,45.2z M228.2,41.5c0-0.1-0.2-0.7-0.6-1.7c-0.4-1-0.7-1.7-0.8-2
		c-0.9,2.4-1.4,3.6-1.4,3.7c0,0.2,0.2,0.2,0.5,0.3c0,0,0.2,0,0.7,0h0.7C227.9,41.8,228.2,41.7,228.2,41.5z"/>
	<path class="st2" d="M244.9,45.1c0,0.1-0.1,0.2-0.2,0.2c-0.1,0-0.2,0-0.4,0c-0.2,0-0.3,0-0.4,0c-0.1,0-0.2,0-0.4,0
		c-0.2,0-0.3,0-0.4,0c-0.1,0-0.2-0.1-0.2-0.2c0-0.6,0-1.4,0.1-2.5c0-1.1,0.1-2,0.1-2.5c0-0.1,0-0.1-0.1-0.1c0,0-0.1,0-0.1,0.1
		c-0.2,0.5-0.8,1.8-1.6,3.9c-0.1,0.4-0.3,0.9-0.6,1.5c0,0.1-0.2,0.1-0.5,0.1c-0.4,0-0.7,0-0.7-0.1c-0.2-0.4-0.4-0.9-0.6-1.5
		c-0.4-0.9-0.9-2.2-1.7-3.9c0,0,0-0.1-0.1-0.1c0,0-0.1,0.1-0.1,0.1c0,0.6,0,1.4,0,2.6c0,1.1,0,2,0,2.6c0,0.1-0.1,0.2-0.2,0.2
		c-0.1,0-0.2,0-0.3,0c-0.2,0-0.3,0-0.3,0c-0.1,0-0.2,0-0.4,0c-0.2,0-0.3,0-0.4,0c-0.1,0-0.2,0-0.2-0.1c0-0.5,0-1.2,0.1-2.2
		c0-1,0.1-1.7,0.1-2.2c0-0.5,0-1.3-0.1-2.3c0-1-0.1-1.8-0.1-2.3c0-0.1,0.1-0.1,0.2-0.1c0.6-0.1,1.1-0.1,1.4-0.1c0,0,0.1,0.1,0.2,0.3
		c1.1,2.4,2,4.5,2.8,6.4c0.2,0.4,0.3,0.7,0.3,0.7c0,0,0.1-0.2,0.3-0.5c0.6-1.4,1.4-3.6,2.5-6.4c0.1-0.2,0.1-0.3,0.2-0.3
		c0.2,0,0.4,0,0.7,0c0.3,0,0.5,0,0.7,0c0.1,0,0.2,0.1,0.2,0.2c0,0.5,0,1.3-0.1,2.3c0,1,0,1.8,0,2.3c0,0.5,0,1.2,0.1,2.2
		C244.9,43.9,244.9,44.6,244.9,45.1z"/>
	<path class="st2" d="M252.7,43.9c0,0.1,0,0.2-0.1,0.3c0,0.2-0.1,0.3-0.1,0.3c0,0.2,0,0.4-0.1,0.7c0,0.1-0.1,0.1-0.2,0.1
		c0,0-0.1,0-0.3,0c-0.5-0.1-1.4-0.1-2.5-0.1c-0.3,0-0.8,0-1.5,0c-0.7,0-1.1,0-1.5,0c-0.1,0-0.2-0.1-0.2-0.2c0-0.5,0-1.2,0.1-2.2
		c0.1-1,0.1-1.8,0.1-2.2c0-0.5,0-1.5-0.1-2.8c0-0.4,0-0.9-0.1-1.6l0-0.1c0-0.1,0.1-0.2,0.2-0.2c0.3,0,0.8,0,1.4,0c0.6,0,1.1,0,1.4,0
		c0.3,0,0.7,0,1.3,0c0.6,0,1,0,1.3,0c0.2,0,0.3,0.1,0.3,0.2c0.1,0.6,0.1,1,0.1,1.1c0,0.1,0,0.2-0.1,0.2c-0.4,0-1,0-1.7-0.1
		c-0.8,0-1.3-0.1-1.7-0.1c-0.4,0-0.6,0-0.7,0.1c-0.1,0.1-0.1,0.3-0.1,0.7v1c0,0.3,0,0.4,0,0.5c0,0.1,0.2,0.2,0.3,0.2
		c0.1,0,0.1,0,0.2,0c0.1,0,0.2,0,0.2,0c0.9,0,1.7,0,2.4,0c0.3,0,0.6,0,1-0.1c0.1,0,0.1,0,0.1,0.1c0,0.1,0,0.4-0.1,0.7
		c0,0.3,0,0.5,0,0.7c0,0.1-0.1,0.1-0.2,0.1c-0.1,0-0.3,0-0.6,0c-0.2,0-0.8,0-1.7,0c-0.7,0-1.2,0-1.4,0c-0.2,0-0.3,0.1-0.3,0.3
		c0,0,0,0.1,0,0.5v1c0,0.5,0.1,0.8,0.2,0.9c0.1,0.1,0.4,0.1,0.8,0.1l0.7,0c0.3,0,1.2-0.1,2.6-0.2l0.1,0
		C252.6,43.7,252.7,43.8,252.7,43.9z"/>
	<path class="st2" d="M261.9,40.5c0,1.3-0.4,2.3-1.1,3.2c-0.8,1-1.8,1.5-3,1.5c-0.2,0-0.6,0-1,0c-0.5,0-0.8,0-1,0
		c-0.2,0-0.5,0-0.9,0c-0.4,0-0.7,0-0.9,0c-0.1,0-0.2-0.1-0.2-0.2c0-0.5,0-1.2,0.1-2.2c0-1,0.1-1.7,0.1-2.2c0-0.5,0-1.3-0.1-2.3
		c0-1-0.1-1.8-0.1-2.3c0-0.1,0.1-0.1,0.2-0.1c0.2,0,0.4,0,0.7,0c0.3,0,0.6,0,0.7,0c0.2,0,0.4,0,0.7,0c0.3,0,0.5,0,0.7,0
		c1.5,0,2.7,0.3,3.5,0.9c0.5,0.4,1,1,1.3,1.7C261.8,39.1,261.9,39.8,261.9,40.5z M260.3,40.5c0-1-0.3-1.7-0.8-2.4
		c-0.6-0.6-1.3-0.9-2.3-0.9c-0.8,0-1.1,0-1,0c-0.5,0-0.8,0.1-0.8,0.3c0,0.3,0,0.9,0,1.5c0,0.7,0,1.2,0,1.5c0,0.3,0,0.8,0,1.5
		c0,0.7,0,1.2,0,1.5c0,0.2,0.3,0.3,0.8,0.3c-0.1,0,0.3,0,1,0c0.5,0,0.9-0.1,1.2-0.2c0.4-0.1,0.7-0.4,1-0.7
		C260,42.3,260.3,41.5,260.3,40.5z"/>
	<path class="st2" d="M264.8,45.1c0,0.1-0.1,0.1-0.2,0.1c-0.1,0-0.2,0-0.4,0c-0.2,0-0.3,0-0.4,0c-0.1,0-0.2,0-0.4,0
		c-0.2,0-0.3,0-0.4,0c-0.1,0-0.2-0.1-0.2-0.2c0-0.5,0-1.3,0.1-2.3c0-1,0.1-1.8,0.1-2.3c0-0.5,0-1.2-0.1-2.2c0-1-0.1-1.7-0.1-2.2
		c0-0.1,0.1-0.2,0.2-0.2c0.1,0,0.2,0,0.4,0c0.2,0,0.3,0,0.4,0c0.1,0,0.2,0,0.4,0c0.2,0,0.3,0,0.4,0c0.1,0,0.2,0,0.2,0.1
		c0,0.5,0,1.2-0.1,2.2c0,1-0.1,1.7-0.1,2.2c0,0.5,0,1.3,0.1,2.3C264.8,43.8,264.8,44.6,264.8,45.1z"/>
	<path class="st2" d="M274.5,40.5c0,1.3-0.4,2.3-1.1,3.2c-0.8,1-1.8,1.5-3,1.5c-0.2,0-0.6,0-1,0c-0.5,0-0.8,0-1,0
		c-0.2,0-0.5,0-0.9,0c-0.4,0-0.7,0-0.9,0c-0.1,0-0.2-0.1-0.2-0.2c0-0.5,0-1.2,0.1-2.2c0-1,0.1-1.7,0.1-2.2c0-0.5,0-1.3-0.1-2.3
		c0-1-0.1-1.8-0.1-2.3c0-0.1,0.1-0.1,0.2-0.1c0.2,0,0.4,0,0.7,0c0.3,0,0.6,0,0.7,0c0.2,0,0.4,0,0.7,0c0.3,0,0.5,0,0.7,0
		c1.5,0,2.7,0.3,3.5,0.9c0.5,0.4,1,1,1.3,1.7C274.3,39.1,274.5,39.8,274.5,40.5z M272.8,40.5c0-1-0.3-1.7-0.8-2.4
		c-0.6-0.6-1.3-0.9-2.3-0.9c-0.8,0-1.1,0-1,0c-0.5,0-0.8,0.1-0.8,0.3c0,0.3,0,0.9,0,1.5c0,0.7,0,1.2,0,1.5c0,0.3,0,0.8,0,1.5
		c0,0.7,0,1.2,0,1.5c0,0.2,0.3,0.3,0.8,0.3c-0.1,0,0.3,0,1,0c0.5,0,0.9-0.1,1.2-0.2c0.4-0.1,0.7-0.4,1-0.7
		C272.6,42.3,272.8,41.5,272.8,40.5z"/>
	<path class="st2" d="M283.8,45.2c0,0.1-0.1,0.1-0.2,0.1c-0.1,0-0.2,0-0.4,0c-0.2,0-0.3,0-0.4,0c-0.1,0-0.2,0-0.4,0
		c-0.2,0-0.3,0-0.4,0c-0.1,0-0.3-0.3-0.5-1c-0.2-0.7-0.4-1-0.6-1c-0.2,0-0.6,0-1.3,0h-1.1c-0.7,0-1.2,0-1.3,0c-0.2,0-0.3,0.4-0.5,1
		c-0.2,0.7-0.3,1-0.4,1h-1.5c-0.1,0-0.1,0-0.1-0.1c0,0,0-0.1,0.1-0.3l1.6-4.5c0.1-0.4,0.6-1.4,1.3-3.1c0.1-0.3,0.3-0.7,0.5-1.3
		c0.1-0.2,0.1-0.3,0.2-0.3c0.1,0,0.2,0,0.4,0c0.2,0,0.3,0,0.4,0c0.1,0,0.2,0,0.4,0c0.2,0,0.3,0,0.4,0c0,0,0.1,0.1,0.2,0.2
		c0.1,0.2,0.6,1.6,1.6,4C283.2,43.4,283.8,45.2,283.8,45.2z M280.7,41.5c0-0.1-0.2-0.7-0.6-1.7c-0.4-1-0.7-1.7-0.8-2
		c-0.9,2.4-1.4,3.6-1.4,3.7c0,0.2,0.2,0.2,0.5,0.3c0,0,0.2,0,0.7,0h0.7C280.4,41.8,280.7,41.7,280.7,41.5z"/>
</g>
<path class="st1" d="M23.9,16c0,0-0.3,0-0.3,0c0.2,4.2,1.3,26.9,1.6,27.4c0.9,1.5,4.9,2.7,7.5,0.3c0-0.6,0.7-23.6,0.8-27.7h-0.3"/>
<path class="st3" d="M23.7,15.7c0-1.5,2.7-2.3,4.8-2.3c2.2,0,4.8,0.4,4.9,2.5c0.1,1.2-2.2,1.8-4.9,1.8
	C27.5,17.8,23.7,17.3,23.7,15.7"/>
<path class="st4" d="M23.7,15.7c0-1.5,2.7-2.3,4.8-2.3c2.2,0,4.8,0.4,4.9,2.5c0.1,1.2-2.2,1.8-4.9,1.8
	C27.5,17.8,23.7,17.3,23.7,15.7z"/>
<path class="st3" d="M28.9,24.2c-0.1,0-0.1,0-0.2,0c-3.9-0.1-4.8-2.1-4.9-2.2l0-0.3l0-0.2v-0.3c0,0.1,1.4,2,4.9,2.1
	c3.5,0.1,4.7-2.3,4.7-2.4l0,1C33.4,21.9,32.7,24.2,28.9,24.2"/>
<path class="st1" d="M30.9,18.9c0,0-0.3,0-0.3,0c0.2,4.3,1.3,27.3,1.6,27.9c0.9,1.5,5,2.7,7.7,0.3c0-0.6,0.8-24,0.8-28.2h-0.3"/>
<path class="st3" d="M30.9,18.9c0-1.6,2.6-2.6,4.8-2.6c1.6,0,5,0.1,5,2.6c0,1.6-3.6,1.9-4.6,1.9C34.9,20.8,30.9,20.4,30.9,18.9"/>
<path class="st4" d="M30.9,18.9c0-1.6,2.6-2.6,4.8-2.6c1.6,0,5,0.1,5,2.6c0,1.6-3.6,1.9-4.6,1.9C34.9,20.8,30.9,20.4,30.9,18.9z"/>
<path class="st3" d="M36,27.3c-0.1,0-0.1,0-0.2,0c-4-0.1-4.9-2.1-5-2.2l0-0.3l0-0.2v-0.3c0,0.1,1.4,2,5,2.1c3.5,0.1,4.8-2.4,4.8-2.4
	l0,1C40.6,25,39.8,27.3,36,27.3"/>
<path class="st1" d="M16.3,18.8c0,0-0.3,0-0.3,0c0.2,4.3,1.3,27.3,1.6,27.9c0.9,1.5,5,2.7,7.7,0.3c0-0.6,0.8-24,0.8-28.2h-0.3"/>
<path class="st3" d="M16.2,18.8c0-1.6,2.7-2.6,4.9-2.6c1.6,0,4.8,0.2,4.8,2.7c0,1.6-3.4,1.8-4.4,1.8C20.3,20.6,16.2,20.2,16.2,18.8"
	/>
<path class="st4" d="M16.2,18.8c0-1.6,2.7-2.6,4.9-2.6c1.6,0,4.8,0.2,4.8,2.7c0,1.6-3.4,1.8-4.4,1.8C20.3,20.6,16.2,20.2,16.2,18.8z
	"/>
<path class="st3" d="M21.4,27.1c-0.1,0-0.1,0-0.2,0c-4-0.1-4.9-2.1-5-2.2l0-0.3l0-0.2v-0.3c0,0.1,1.4,2,5,2.1
	c3.5,0.1,4.8-2.4,4.8-2.4l0,1C26,24.9,25.3,27.1,21.4,27.1"/>
<path class="st0" d="M23.3,22.6c0,0-0.3,0-0.3,0c0.2,4.4,1.4,28.2,1.7,28.7c1,1.6,5.2,2.8,7.9,0.3c0-0.7,0.8-24.7,0.8-29h-0.3"/>
<path class="st3" d="M23.1,22.5c0-1.6,2.6-2.6,5.1-2.6c1.7,0,5.2,0.3,5.1,2.8c0,1.7-3.7,1.8-4.7,1.8C27.3,24.5,23.1,24,23.1,22.5"/>
<path class="st5" d="M23.1,22.5c0-1.6,2.6-2.6,5.1-2.6c1.7,0,5.2,0.3,5.1,2.8c0,1.7-3.7,1.8-4.7,1.8C27.3,24.5,23.1,24,23.1,22.5z"
	/>
<path class="st3" d="M28.5,31.2c-0.1,0-0.1,0-0.2,0c-4.1-0.1-5-1.5-5.1-1.6l-0.1-1.1l0-0.2c0,0.1,1.4,1.9,5.1,2c3.6,0.1,5-2.4,5-2.4
	v1.4C33.3,29.4,32.5,31.2,28.5,31.2"/>
</svg>
